<svg width="64" height="64" viewBox="0 0 64 64" fill="none" xmlns="http://www.w3.org/2000/svg">
<path d="M31 62C47.0163 62 60 49.0163 60 33C60 16.9837 47.0163 4 31 4C14.9837 4 2 16.9837 2 33C2 49.0163 14.9837 62 31 62Z" fill="#FF006E"/>
<path d="M31 55C43.1503 55 53 45.1503 53 33C53 20.8497 43.1503 11 31 11C18.8497 11 9 20.8497 9 33C9 45.1503 18.8497 55 31 55Z" fill="#263238"/>
<path d="M31 47C38.732 47 45 40.732 45 33C45 25.268 38.732 19 31 19C23.268 19 17 25.268 17 33C17 40.732 23.268 47 31 47Z" fill="#FF006E"/>
<path d="M31 40C34.866 40 38 36.866 38 33C38 29.134 34.866 26 31 26C27.134 26 24 29.134 24 33C24 36.866 27.134 40 31 40Z" fill="#263238"/>
<path d="M31 63C14.5 63 1 49.6 1 33C1 16.4 14.5 3 31 3C47.5 3 61 16.5 61 33C61 49.5 47.5 63 31 63ZM31 5C15.6 5 3 17.6 3 33C3 48.4 15.6 61 31 61C46.4 61 59 48.4 59 33C59 17.6 46.4 5 31 5Z" fill="#B3E5FC"/>
<path d="M42.8 21.2L45.4 17.2C47.2 14.5 48.5 11.5 49.5 8.4C50.1 6.4 52 5 54.2 5C55.5 5 56.7 5.5 57.6 6.4L42.8 21.2Z" fill="#FFBA08"/>
<path d="M57.6 6.3C58.5 7.3 59 8.5 59 9.8C59 12 57.6 13.9 55.5 14.6C52.4 15.6 49.5 16.9 46.7 18.7L42.7 21.3L57.6 6.3Z" fill="#FFBA08"/>
<path d="M59.2835 3.30115L30.2924 32.2923L31.7066 33.7065L60.6977 4.71535L59.2835 3.30115Z" fill="#BDBDBD"/>
<path d="M57.2 28.2C56.7 28.2 56.2 28.1 55.6 28C52.5 27 49.3 26.4 46.1 26.3C45.5 26.3 45.1 25.8 45.1 25.3C54.7 23.6 60.9 23.6 60.9 23.6L61.9 23.7C61.8 24.5 61.7 25.3 61.2 26.1C60.3 27.4 58.8 28.2 57.2 28.2Z" fill="#00A896"/>
<path d="M38.7 19.1C38.2 19.1 37.7 18.7 37.7 18.2C37.5 15.4 36.7 12.3 35.4 8.8C34.6 6.6 35.3 4.3 37 3C38 2.2 39.3 1.9 40.5 2C41 5.2 39.1 17.2 38.7 19.1Z" fill="#00A896"/>
<path d="M33.9 30.1C38.8 22 41.3 12.5 40.9 3H39.9C40.3 12.3 37.9 21.6 33.1 29.5C32.5 30.1 30.3 32.3 30.3 32.3C29.4 33.2 30.8 34.7 31.7 33.7C31.7 33.7 34 31.4 34.6 30.8C42.5 26 51.6 23.6 61 24V23C51.5 22.7 42 25.1 33.9 30.1Z" fill="#546E7A"  />
</svg>
